<?xml version="1.0" standalone="no"?>
<!DOCTYPE svg PUBLIC "-//W3C//DTD SVG 20010904//EN"
 "http://www.w3.org/TR/2001/REC-SVG-20010904/DTD/svg10.dtd">
<svg version="1.0" xmlns="http://www.w3.org/2000/svg"
 width="868.000000pt" height="868.000000pt" viewBox="0 0 868.000000 868.000000"
 preserveAspectRatio="xMidYMid meet">
<metadata>
Created by potrace 1.11, written by Peter Selinger 2001-2013
</metadata>
<g transform="translate(0.000000,868.000000) scale(0.100000,-0.100000)"
fill="#000000" stroke="none">
<path d="M4280 7740 c-5 -3 -10 -17 -12 -30 -2 -14 -6 -30 -10 -36 -8 -12 -6
-34 6 -53 6 -10 5 -12 -2 -7 -7 4 -12 1 -13 -6 0 -7 -3 -22 -5 -33 -3 -11 -7
-33 -9 -50 -3 -16 -7 -39 -9 -50 -3 -11 -5 -28 -5 -38 -1 -22 -34 -35 -103
-41 -29 -3 -63 -7 -75 -10 -11 -2 -43 -8 -70 -12 -54 -9 -62 -11 -65 -14 -2
-1 -16 -4 -33 -6 -39 -6 -231 -60 -303 -85 -31 -11 -64 -22 -72 -24 -14 -3
-79 -29 -185 -73 -69 -29 -328 -161 -345 -177 -9 -8 -20 -15 -24 -15 -4 0 -27
-13 -51 -30 -24 -16 -48 -30 -54 -30 -6 0 -11 -4 -11 -8 0 -5 -18 -18 -40 -31
-22 -12 -45 -28 -52 -34 -7 -7 -38 -30 -68 -52 -30 -22 -60 -44 -66 -50 -6 -5
-33 -28 -60 -50 -104 -86 -257 -235 -339 -330 -22 -25 -49 -56 -60 -69 -28
-31 -67 -81 -114 -146 -22 -30 -45 -60 -51 -67 -5 -7 -10 -16 -10 -22 0 -5 -4
-11 -9 -13 -8 -3 -92 -134 -143 -223 -50 -89 -165 -327 -174 -360 -1 -5 -14
-41 -29 -80 -54 -138 -123 -378 -141 -485 -3 -14 -7 -38 -11 -55 -6 -32 -7
-39 -17 -120 -3 -27 -8 -61 -11 -75 -18 -94 -25 -491 -10 -645 13 -138 14
-130 -20 -130 -16 0 -35 -4 -42 -8 -6 -4 -14 -4 -17 1 -7 12 -168 2 -185 -11
-12 -9 -13 -9 -8 0 6 9 -5 12 -42 11 -27 -1 -47 -6 -45 -10 3 -4 -7 -3 -22 2
-19 7 -30 7 -40 -1 -8 -6 -14 -8 -14 -3 0 5 -17 8 -37 7 -21 -1 -64 -2 -96 -2
-32 -1 -56 -5 -53 -9 3 -5 -1 -9 -9 -9 -8 0 -12 4 -9 9 3 4 0 8 -5 8 -6 0 -11
-8 -12 -17 0 -11 -3 -13 -6 -5 -2 6 -10 9 -16 5 -7 -4 -14 -8 -17 -8 -16 0
-120 -40 -120 -46 0 -3 -11 -5 -25 -4 -14 2 -25 -1 -25 -5 0 -5 -17 -12 -38
-16 -20 -4 -46 -12 -57 -17 -11 -6 -24 -12 -30 -12 -5 -1 -9 -7 -7 -15 2 -10
0 -11 -11 -2 -8 7 -17 8 -21 4 -4 -4 -11 -7 -14 -8 -20 -2 -70 -18 -87 -28
-11 -5 -22 -11 -25 -11 -23 -3 -100 -29 -100 -34 0 -4 -11 -8 -26 -9 -14 -1
-33 -6 -43 -12 -10 -5 -21 -6 -25 -3 -3 3 -6 0 -6 -7 0 -7 -3 -10 -7 -7 -3 4
-12 2 -20 -4 -7 -6 -13 -8 -13 -5 0 4 -7 1 -15 -8 -17 -16 -9 -50 10 -42 6 2
18 0 26 -4 8 -5 16 -5 20 2 4 7 12 7 24 1 9 -6 33 -7 54 -4 20 4 82 6 139 6
86 0 101 2 97 15 -4 11 -1 10 8 -2 8 -10 16 -16 18 -13 3 2 60 5 127 6 83 1
120 4 115 12 -4 6 -1 7 8 1 17 -11 209 -12 209 -1 0 4 9 3 19 -3 14 -7 21 -6
25 3 5 9 7 9 12 -1 5 -10 11 -9 27 5 11 10 17 13 14 6 -4 -6 -3 -14 3 -18 5
-3 10 -1 10 5 0 6 5 8 10 5 6 -4 18 -1 27 7 9 7 14 8 10 2 -8 -13 149 -14 170
-1 6 4 14 4 16 0 6 -10 100 -8 116 1 6 4 11 3 11 -3 0 -6 6 -8 14 -5 8 3 42 6
75 7 l60 2 12 -45 c28 -110 69 -242 80 -262 5 -10 9 -24 9 -32 0 -55 239 -552
300 -623 5 -7 10 -15 10 -19 0 -4 11 -22 25 -40 14 -18 25 -35 25 -39 0 -3 5
-11 10 -18 6 -7 42 -54 80 -106 130 -176 303 -363 455 -491 28 -23 55 -47 60
-53 6 -7 18 -16 27 -22 8 -5 52 -38 96 -72 45 -35 84 -63 87 -63 3 0 15 -8 26
-18 10 -11 32 -25 47 -33 15 -8 29 -17 32 -20 7 -9 138 -85 255 -148 48 -27
285 -131 305 -135 3 -1 30 -11 60 -23 85 -33 288 -94 360 -107 14 -2 32 -7 40
-10 16 -6 171 -34 235 -42 22 -3 55 -7 74 -10 74 -10 213 -17 354 -18 123 -1
147 -3 148 -16 0 -8 2 -24 5 -35 2 -11 5 -39 6 -62 1 -24 6 -43 10 -43 4 0 7
-3 7 -7 -3 -19 2 -33 12 -33 18 0 41 30 35 45 -3 8 -2 16 2 19 8 5 14 44 16
103 1 22 6 33 16 34 46 4 79 7 115 13 22 3 64 8 93 11 29 2 57 7 61 9 5 3 28
8 52 10 24 3 59 10 77 15 17 5 32 8 32 5 0 -3 8 0 19 5 10 6 33 12 50 13 17 1
31 6 31 11 0 4 4 6 8 3 9 -6 161 37 252 71 8 3 20 7 25 8 10 2 140 54 195 78
14 6 27 11 30 11 10 3 225 110 230 116 3 3 16 11 30 17 25 13 51 28 162 97 76
48 275 195 321 238 17 16 47 42 66 56 48 37 172 162 261 263 41 46 77 86 80
89 3 3 31 39 63 80 31 41 61 80 67 87 5 7 10 16 10 22 0 5 3 11 8 13 17 7 138
202 209 336 19 37 39 72 44 78 5 6 7 13 4 16 -3 2 7 15 22 29 14 13 23 18 19
12 -10 -17 26 -17 43 -1 11 10 13 10 7 1 -4 -8 -1 -13 8 -13 9 0 16 6 16 13 0
8 2 9 8 1 9 -14 193 -14 185 0 -4 5 -1 6 8 0 21 -13 142 -13 158 0 11 8 13 8
7 -1 -4 -8 -1 -13 9 -13 10 0 14 5 9 13 -5 9 -4 9 6 0 9 -8 19 -9 31 -3 11 6
20 6 24 1 6 -10 51 -8 62 2 3 4 12 2 19 -4 9 -7 19 -7 32 0 13 7 22 7 29 0 8
-8 17 -8 31 0 12 6 23 7 26 3 6 -10 178 -8 194 2 7 4 12 3 12 -2 0 -10 62 -8
81 3 7 5 10 4 6 -1 -6 -10 55 -10 72 1 6 3 11 3 11 -2 0 -10 92 -9 108 1 7 4
12 4 12 -1 0 -4 6 1 12 11 9 15 7 22 -7 32 -10 7 -22 11 -26 8 -5 -3 -9 -1 -9
4 0 12 -108 44 -122 36 -7 -4 -8 -3 -4 4 8 13 -90 45 -107 35 -5 -3 -7 -2 -4
4 6 10 -58 36 -88 36 -8 0 -15 5 -15 10 0 6 -3 8 -6 5 -3 -4 -30 5 -60 18 -31
13 -60 22 -65 19 -5 -4 -9 -1 -9 5 0 6 -4 9 -9 5 -5 -3 -12 -1 -16 5 -4 6 -10
8 -15 5 -5 -3 -11 -1 -15 5 -4 6 -11 8 -16 5 -5 -4 -9 -1 -9 4 0 6 -10 11 -23
11 -13 0 -27 4 -33 10 -5 5 -22 11 -37 12 -15 1 -27 5 -27 9 0 8 -41 19 -98
25 -34 4 -42 2 -36 -8 6 -10 4 -10 -7 -2 -8 6 -62 10 -136 8 l-121 -2 14 42
c17 46 60 198 68 236 3 14 8 36 11 50 17 73 43 223 50 295 2 17 6 50 10 75 4
36 18 294 17 335 -3 124 -16 296 -32 415 -7 47 -14 96 -16 110 -1 14 -6 36 -9
50 -3 14 -10 46 -15 71 -22 111 -98 369 -131 444 -5 11 -17 43 -28 70 -10 28
-33 80 -50 118 -17 37 -31 72 -31 77 0 6 -4 10 -10 10 -5 0 -9 3 -8 8 3 10
-61 133 -81 156 -9 10 -14 19 -12 20 5 1 -1 11 -77 131 -28 44 -56 85 -61 92
-6 7 -11 16 -11 22 0 5 -4 11 -8 13 -4 2 -23 25 -42 53 -19 27 -45 61 -56 75
-151 180 -286 320 -409 425 -38 33 -72 62 -75 65 -16 16 -177 135 -241 178
-207 138 -488 279 -714 356 -11 4 -20 7 -20 6 0 0 -39 13 -87 29 -49 16 -88
28 -88 25 0 -3 -9 0 -19 6 -11 5 -32 12 -48 14 -15 2 -35 6 -43 9 -8 4 -26 9
-40 11 -14 3 -50 10 -80 16 -30 6 -71 13 -90 16 -19 3 -46 7 -60 10 -123 21
-190 25 -435 29 -158 2 -229 7 -228 14 2 6 0 11 -5 11 -7 0 -11 48 -12 133 0
21 -4 36 -10 32 -5 -3 -7 11 -4 36 5 40 4 42 -13 29 -17 -13 -17 -13 -2 4 21
23 13 65 -12 63 -11 -1 -24 -4 -29 -7z"/>
</g>
</svg>
